<?xml version="1.0" encoding="UTF-8" standalone="no"?>
<!DOCTYPE svg PUBLIC "-//W3C//DTD SVG 1.1//EN" "http://www.w3.org/Graphics/SVG/1.1/DTD/svg11.dtd">
<svg width="100%" height="100%" viewBox="0 0 750 500" version="1.1" xmlns="http://www.w3.org/2000/svg" xmlns:xlink="http://www.w3.org/1999/xlink" xml:space="preserve" xmlns:serif="http://www.serif.com/" style="fill-rule:evenodd;clip-rule:evenodd;stroke-miterlimit:2;">
    <g>
        <path d="M633.863,343.94L108.753,343.94C105.185,343.94 102.292,341.048 102.292,337.479L102.292,84.143L640.324,84.143L640.324,337.479C640.324,341.048 637.432,343.94 633.863,343.94Z" style="fill:rgb(160,192,252);fill-rule:nonzero;"/>
        <path d="M640.324,84.209L102.292,84.209L102.292,76.816C102.292,66.892 110.338,58.847 120.262,58.847L622.354,58.847C632.279,58.847 640.324,66.892 640.324,76.816L640.324,84.209Z" style="fill:rgb(76,96,250);fill-rule:nonzero;"/>
        <path d="M140.4,71.93C140.4,74.349 138.439,76.31 136.02,76.31C133.601,76.31 131.64,74.349 131.64,71.93C131.64,69.511 133.601,67.55 136.02,67.55C138.439,67.55 140.4,69.511 140.4,71.93Z" style="fill:rgb(231,156,136);fill-rule:nonzero;"/>
        <path d="M159.927,71.93C159.927,74.349 157.966,76.31 155.547,76.31C153.128,76.31 151.167,74.349 151.167,71.93C151.167,69.511 153.128,67.55 155.547,67.55C157.966,67.55 159.927,69.511 159.927,71.93Z" style="fill:white;fill-rule:nonzero;"/>
        <path d="M179.454,71.93C179.454,74.349 177.493,76.31 175.074,76.31C172.655,76.31 170.694,74.349 170.694,71.93C170.694,69.511 172.655,67.55 175.074,67.55C177.493,67.55 179.454,69.511 179.454,71.93Z" style="fill:white;fill-rule:nonzero;"/>
        <path d="M557.671,104.851C556.344,103.235 554.31,102.378 552.223,102.552L517.463,105.491C515.09,105.691 513.026,107.202 512.12,109.404C511.212,111.606 511.61,114.131 513.153,115.945L520.511,124.602L467.886,163.968L448.344,142.609C445.723,139.744 441.368,139.305 438.228,141.587L327.238,222.257L297.362,201.197C294.566,199.226 290.799,199.357 288.146,201.518L203.139,270.763C199.871,273.424 199.38,278.23 202.042,281.497C203.55,283.35 205.747,284.31 207.962,284.31C209.657,284.31 211.361,283.748 212.777,282.595L293.298,217.004L322.91,237.878C325.579,239.759 329.15,239.733 331.793,237.813L441.686,157.94L461.291,179.37C463.939,182.264 468.351,182.68 471.492,180.33L530.414,136.253L538.511,145.78C539.733,147.219 541.513,148.021 543.356,148.021C543.802,148.021 544.252,147.975 544.698,147.878C546.989,147.384 548.822,145.669 549.469,143.416L558.87,110.642C559.447,108.632 558.999,106.466 557.671,104.851Z" style="fill:url(#_Linear1);"/>
        <rect x="261.015" y="259.781" width="28.925" height="49.369" style="fill:rgb(124,154,251);fill-rule:nonzero;"/>
        <rect x="303.464" y="273.777" width="28.926" height="35.373" style="fill:rgb(124,154,251);fill-rule:nonzero;"/>
        <rect x="345.915" y="246.419" width="28.925" height="62.731" style="fill:rgb(124,154,251);fill-rule:nonzero;"/>
        <rect x="388.364" y="235.865" width="28.926" height="73.285" style="fill:rgb(124,154,251);fill-rule:nonzero;"/>
        <rect x="430.814" y="207.86" width="28.926" height="101.29" style="fill:rgb(124,154,251);fill-rule:nonzero;"/>
        <rect x="473.264" y="236.408" width="28.925" height="72.742" style="fill:rgb(124,154,251);fill-rule:nonzero;"/>
        <path d="M189.806,113.183L189.806,308.957L571.061,308.957" style="fill:none;stroke:white;stroke-width:1.43px;"/>
        <path d="M712.475,108.212C712.475,119.002 703.727,127.749 692.937,127.749C682.147,127.749 673.4,119.002 673.4,108.212C673.4,97.422 682.147,88.675 692.937,88.675C703.727,88.675 712.475,97.422 712.475,108.212Z" style="fill:none;stroke:white;stroke-width:1.5px;"/>
        <path d="M684.677,109.212L691.476,114.194L700.232,101.823" style="fill:none;stroke:white;stroke-width:1.5px;stroke-linecap:round;stroke-linejoin:round;"/>
        <path d="M73.73,360.989C73.73,371.779 64.982,380.526 54.192,380.526C43.402,380.526 34.656,371.779 34.656,360.989C34.656,350.199 43.402,341.452 54.192,341.452C64.982,341.452 73.73,350.199 73.73,360.989Z" style="fill:none;stroke:white;stroke-width:1.5px;"/>
        <path d="M48.666,354.793L59.719,365.847" style="fill:none;stroke:white;stroke-width:1.5px;stroke-linecap:round;stroke-linejoin:round;"/>
        <path d="M59.719,354.793L48.666,365.847" style="fill:none;stroke:white;stroke-width:1.5px;stroke-linecap:round;stroke-linejoin:round;"/>
        <rect x="673.4" y="288.325" width="14.775" height="14.775" style="fill:none;stroke:white;stroke-width:1.5px;stroke-linecap:round;stroke-linejoin:round;"/>
        <rect x="349.006" y="385.757" width="14.775" height="14.774" style="fill:none;stroke:white;stroke-width:1.5px;stroke-linecap:round;stroke-linejoin:round;"/>
        <path d="M579.946,167.601C575.866,167.601 572.56,164.294 572.56,160.214C572.56,156.134 575.866,152.827 579.946,152.827C584.026,152.827 587.334,156.134 587.334,160.214C587.334,164.294 584.026,167.601 579.946,167.601Z" style="fill:none;stroke:white;stroke-width:1.5px;stroke-linecap:round;stroke-linejoin:round;"/>
        <rect x="40.323" y="214.91" width="14.774" height="14.775" style="fill:none;stroke:white;stroke-width:1.5px;stroke-linecap:round;stroke-linejoin:round;"/>
        <path d="M239.456,121.749C239.456,124.214 237.458,126.212 234.993,126.212C232.528,126.212 230.53,124.214 230.53,121.749C230.53,119.284 232.528,117.286 234.993,117.286C237.458,117.286 239.456,119.284 239.456,121.749Z" style="fill:white;fill-rule:nonzero;"/>
        <path d="M252.385,121.749C252.385,124.214 250.387,126.212 247.922,126.212C245.457,126.212 243.458,124.214 243.458,121.749C243.458,119.284 245.457,117.286 247.922,117.286C250.387,117.286 252.385,119.284 252.385,121.749Z" style="fill:white;fill-rule:nonzero;"/>
        <path d="M265.313,121.749C265.313,124.214 263.315,126.212 260.851,126.212C258.385,126.212 256.388,124.214 256.388,121.749C256.388,119.284 258.385,117.286 260.851,117.286C263.315,117.286 265.313,119.284 265.313,121.749Z" style="fill:white;fill-rule:nonzero;"/>
        <path d="M273.779,117.286C271.314,117.286 269.316,119.284 269.316,121.749C269.316,124.214 271.314,126.212 273.779,126.212C276.244,126.212 278.242,124.214 278.242,121.749C278.242,119.284 276.244,117.286 273.779,117.286ZM273.779,118.786C275.413,118.786 276.742,120.115 276.742,121.749C276.742,123.383 275.413,124.712 273.779,124.712C272.146,124.712 270.816,123.383 270.816,121.749C270.816,120.115 272.146,118.786 273.779,118.786Z" style="fill:white;fill-rule:nonzero;"/>
        <path d="M117.321,275.312C117.226,285.338 109.02,293.389 98.993,293.293C88.966,293.197 80.916,284.992 81.011,274.965C81.106,264.938 89.312,256.888 99.338,256.983C109.366,257.08 117.417,265.284 117.321,275.312Z" style="fill:rgb(231,156,136);fill-rule:nonzero;"/>
        <path d="M92.374,274.206L97.633,279.403L105.958,269.901" style="fill:none;stroke:white;stroke-width:1.5px;stroke-linecap:round;stroke-linejoin:round;"/>
        <path d="M54.07,146.012L134.857,146.012C136.737,146.012 138.261,144.488 138.261,142.607L138.261,120.149C138.261,118.269 136.737,116.745 134.857,116.745L54.07,116.745C52.19,116.745 50.666,118.269 50.666,120.149L50.666,142.607C50.666,144.488 52.19,146.012 54.07,146.012Z" style="fill:rgb(76,96,250);fill-rule:nonzero;"/>
        <path d="M67.821,128.11L125.2,128.11" style="fill:none;stroke:white;stroke-width:1.1px;"/>
        <path d="M67.821,134.647L84.71,134.647" style="fill:none;stroke:white;stroke-width:1.1px;"/>
        <path d="M127.833,142.117L127.833,155.353L110.961,142.117L127.833,142.117Z" style="fill:rgb(76,96,250);fill-rule:nonzero;"/>
        <path d="M402.786,125.775L312.001,125.775C308.391,125.775 305.464,122.848 305.464,119.238L305.464,43.189C305.464,39.579 308.391,36.652 312.001,36.652L402.786,36.652C406.396,36.652 409.323,39.579 409.323,43.189L409.323,119.238C409.323,122.848 406.396,125.775 402.786,125.775Z" style="fill:rgb(231,156,136);fill-rule:nonzero;"/>
        <rect x="327.612" y="58.291" width="10.576" height="10.576" style="fill:none;stroke:white;stroke-width:1.59px;stroke-linecap:round;stroke-linejoin:round;"/>
        <path d="M345.846,63.579L366.348,63.579" style="fill:none;stroke:white;stroke-width:1.59px;stroke-linecap:round;stroke-linejoin:round;"/>
        <rect x="327.612" y="75.926" width="10.576" height="10.575" style="fill:none;stroke:white;stroke-width:1.59px;stroke-linecap:round;stroke-linejoin:round;"/>
        <path d="M345.846,81.214L387.187,81.214" style="fill:none;stroke:white;stroke-width:1.59px;stroke-linecap:round;stroke-linejoin:round;"/>
        <rect x="327.612" y="93.561" width="10.576" height="10.575" style="fill:none;stroke:white;stroke-width:1.59px;stroke-linecap:round;stroke-linejoin:round;"/>
        <path d="M345.846,98.849L387.187,98.849" style="fill:none;stroke:white;stroke-width:1.59px;stroke-linecap:round;stroke-linejoin:round;"/>
        <path d="M679.459,206.166C679.459,225.536 663.756,241.238 644.386,241.238C625.017,241.238 609.313,225.536 609.313,206.166C609.313,186.795 625.017,171.093 644.386,171.093C663.756,171.093 679.459,186.795 679.459,206.166Z" style="fill:rgb(76,96,250);fill-rule:nonzero;"/>
        <rect x="629.457" y="205.468" width="6.779" height="11.618" style="fill:white;fill-rule:nonzero;"/>
        <rect x="639.836" y="190.894" width="6.778" height="26.192" style="fill:white;fill-rule:nonzero;"/>
        <rect x="650.214" y="196.324" width="6.778" height="20.762" style="fill:white;fill-rule:nonzero;"/>
        <path d="M622.472,217.086L666.301,217.086" style="fill:none;stroke:white;stroke-width:0.99px;stroke-linecap:round;stroke-linejoin:round;"/>
        <path d="M37.323,75.55L70.719,75.55" style="fill:none;stroke:rgb(231,156,136);stroke-width:2px;stroke-linecap:round;stroke-linejoin:round;"/>
        <path d="M668.329,353.526L708.725,353.526" style="fill:none;stroke:rgb(231,156,136);stroke-width:2px;stroke-linecap:round;stroke-linejoin:round;"/>
        <path d="M483.022,31.393L559.869,31.393" style="fill:none;stroke:rgb(160,192,252);stroke-width:2px;stroke-linecap:round;stroke-linejoin:round;"/>
        <path d="M261.601,390.749L317.927,390.749" style="fill:none;stroke:rgb(160,192,252);stroke-width:2px;stroke-linecap:round;stroke-linejoin:round;"/>
        <path d="M186.699,443.102L188.613,402.165L204.54,402.165L200.275,442.318L186.699,443.102Z" style="fill:rgb(233,167,154);fill-rule:nonzero;"/>
        <path d="M185.841,436.882C189.476,438.513 193.758,439.245 198.77,436.786C198.77,436.786 200.763,430.666 206.314,434.225C206.314,434.225 212.728,441.396 222.257,443.328C235.471,446.008 236.064,452.159 236.064,452.159L180.056,452.159C180.056,452.159 182.028,443.807 182.911,438.531C183.139,437.168 184.58,436.316 185.841,436.882Z" style="fill-rule:nonzero;"/>
        <rect x="180.056" y="452.159" width="56.008" height="6.121" style="fill:white;fill-rule:nonzero;"/>
        <path d="M217,441.662C217,441.662 214.877,441.635 213.214,444.541" style="fill:none;stroke:white;stroke-width:0.79px;stroke-linecap:round;stroke-linejoin:round;"/>
        <path d="M214.305,440.223C214.305,440.223 212.182,440.195 210.519,443.102" style="fill:none;stroke:white;stroke-width:0.79px;stroke-linecap:round;stroke-linejoin:round;"/>
        <path d="M211.553,438.513C211.553,438.513 209.431,438.485 207.768,441.392" style="fill:none;stroke:white;stroke-width:0.79px;stroke-linecap:round;stroke-linejoin:round;"/>
        <path d="M142.231,443.102L147.696,402.165L163.623,402.165L155.808,442.318L142.231,443.102Z" style="fill:rgb(233,167,154);fill-rule:nonzero;"/>
        <path d="M141.696,436.882C145.332,438.513 149.613,439.245 154.625,436.786C154.625,436.786 156.618,430.666 162.17,434.225C162.17,434.225 168.583,441.396 178.112,443.328C191.326,446.008 191.919,452.159 191.919,452.159L135.912,452.159C135.912,452.159 137.883,443.807 138.766,438.531C138.995,437.168 140.435,436.316 141.696,436.882Z" style="fill-rule:nonzero;"/>
        <rect x="135.912" y="452.159" width="56.007" height="6.121" style="fill:white;fill-rule:nonzero;"/>
        <path d="M172.855,441.662C172.855,441.662 170.732,441.635 169.069,444.541" style="fill:none;stroke:white;stroke-width:0.79px;stroke-linecap:round;stroke-linejoin:round;"/>
        <path d="M170.16,440.223C170.16,440.223 168.038,440.195 166.375,443.102" style="fill:none;stroke:white;stroke-width:0.79px;stroke-linecap:round;stroke-linejoin:round;"/>
        <path d="M167.409,438.513C167.409,438.513 165.286,438.485 163.623,441.392" style="fill:none;stroke:white;stroke-width:0.79px;stroke-linecap:round;stroke-linejoin:round;"/>
        <path d="M213.32,236.458C213.32,236.458 215.087,241.894 215.83,267.149C215.983,272.341 215.85,279.551 215.505,284.731L208.059,428.821L180.854,428.716L187.886,282.055L165.179,428.644L138.72,427.967L162.987,243.683L188.999,241.289L213.32,236.458Z" style="fill:rgb(26,36,110);fill-rule:nonzero;"/>
        <path d="M187.886,282.055L202.557,279.542" style="fill:none;stroke:black;stroke-width:0.5px;stroke-linecap:round;stroke-linejoin:round;"/>
        <path d="M204.078,184.541C204.078,184.541 225.822,202.837 246.602,212.201C249.104,213.328 255.082,211.902 257.028,209.967C259.963,207.049 259.532,202.184 256.13,199.827L217.999,170.4L204.078,184.541Z" style="fill:rgb(233,167,154);fill-rule:nonzero;"/>
        <path d="M203.193,161.914C203.193,161.914 218.363,161.914 234.708,181.788L220.962,201.663L195.111,189.373L203.193,161.914Z" style="fill:white;fill-rule:nonzero;"/>
        <path d="M257.883,208.922L283.791,165.826L275.096,160.214L242.275,200.532C239.663,202.859 242.887,209.092 245.946,211.796C247.615,213.313 254.461,214.275 257.883,208.922Z" style="fill:rgb(233,167,154);fill-rule:nonzero;"/>
        <path d="M275.096,160.214L275.886,153.428C276.055,152.218 276.916,151.219 278.088,150.874L285.295,148.75C286.341,148.441 287.462,148.896 287.997,149.847C288.638,150.987 288.22,152.432 287.069,153.054L283.615,154.919C283.615,154.919 288.381,158.743 283.746,163.827L275.096,160.214Z" style="fill:rgb(233,167,154);fill-rule:nonzero;"/>
        <path d="M278.088,150.874L287.539,138.089C288.174,137.23 289.412,137.107 290.203,137.826C290.81,138.376 290.97,139.267 290.592,139.994L284.632,151.476L278.088,150.874Z" style="fill:rgb(233,167,154);fill-rule:nonzero;"/>
        <path d="M285.658,147.777L289.271,146.566C290.032,146.374 290.84,146.552 291.451,147.045L292.28,147.713C293.223,148.474 293.485,149.8 292.903,150.862L288.265,159.049L282.358,154.663L285.658,147.777Z" style="fill:rgb(233,167,154);fill-rule:nonzero;"/>
        <path d="M292.233,148.993L293.577,148.999C294.22,149.001 294.837,149.256 295.294,149.708L296.401,150.802C296.871,151.266 297.134,151.9 297.131,152.561C297.129,153.093 296.954,153.61 296.633,154.034L290.701,161.869L285.603,158.039L292.233,148.993Z" style="fill:rgb(233,167,154);fill-rule:nonzero;"/>
        <path d="M294.378,152.113L295.721,152.119C296.365,152.122 296.981,152.376 297.439,152.829L298.545,153.922C299.015,154.386 299.278,155.02 299.276,155.681C299.273,156.213 299.099,156.73 298.777,157.154L296.694,159.905C294.566,162.716 290.566,163.277 287.747,161.16L294.378,152.113Z" style="fill:rgb(233,167,154);fill-rule:nonzero;"/>
        <path d="M293.848,161.505L291.079,164.541C288.441,167.432 283.96,167.638 281.069,165L275.096,160.214L279.757,153.515L285.622,153.54L290.721,157.103L293.848,161.505Z" style="fill:rgb(233,167,154);fill-rule:nonzero;"/>
        <path d="M278.583,150.791L286.422,148.222C287.546,147.884 288.731,148.517 289.076,149.637C289.336,150.482 289.048,151.401 288.352,151.946L283.615,154.919C283.615,154.919 287.865,157.017 284.372,161.843" style="fill:none;stroke:black;stroke-width:0.51px;stroke-linecap:round;stroke-linejoin:round;"/>
        <path d="M184.744,159.772C177.908,160.355 171.167,161.856 164.796,164.404C163.235,165.028 161.698,165.712 160.291,166.449C155.864,168.765 159.038,173.77 159.595,178.881L161.241,249.833C161.241,249.833 191.779,263.124 216.099,249.168L218.311,181.159C218.799,174.036 215.89,164.565 209.179,162.917C200.71,160.836 191.854,159.732 187.969,159.498L184.744,159.772Z" style="fill:white;fill-rule:nonzero;"/>
        <path d="M200.59,161.125C200.59,161.125 195.569,159.751 187.969,159.498C187.969,159.498 181.484,159.291 175.331,161.187L195.142,172.338C199.953,165.452 200.59,161.125 200.59,161.125Z" style="fill:rgb(233,167,154);fill-rule:nonzero;"/>
        <path d="M217.67,200.098L218.071,184.648" style="fill:none;stroke:rgb(23,23,23);stroke-width:0.68px;stroke-linecap:round;stroke-linejoin:round;"/>
        <path d="M129.205,198.963L155.424,239.002L148.363,247.014L119.421,217.599L129.205,198.963Z" style="fill:rgb(233,167,154);fill-rule:nonzero;"/>
        <path d="M179.515,240.826L168.3,234.91L169.401,232.357C169.801,231.427 169.553,230.335 168.795,229.688C168.012,229.021 166.888,229.002 166.085,229.644L155.04,238.641L148.363,247.014C154.422,252.396 158.38,252.329 160.662,251.287C160.929,251.379 161.192,251.479 161.462,251.56L170.783,254.333C171.645,254.719 172.647,254.342 173.07,253.473C173.377,252.842 173.485,251.831 171.691,250.886L173.485,251.831C174.397,252.239 175.457,251.825 175.882,250.895C176.283,250.072 175.792,248.985 174.738,248.274L176.111,248.833C177.105,249.279 178.276,248.771 178.649,247.677C178.971,246.731 178.488,245.686 177.625,245.232L175.643,244.192L177.996,244.783C179.08,245.181 180.289,244.58 180.644,243.402C180.948,242.392 180.424,241.306 179.515,240.826Z" style="fill:rgb(233,167,154);fill-rule:nonzero;"/>
        <path d="M176.239,244.484L169.608,241.238" style="fill:none;stroke:rgb(23,23,23);stroke-width:0.44px;stroke-linecap:round;stroke-linejoin:round;"/>
        <path d="M174.456,248.153L168.063,245.391" style="fill:none;stroke:rgb(23,23,23);stroke-width:0.44px;stroke-linecap:round;stroke-linejoin:round;"/>
        <path d="M172.285,251.129L166.869,248.913" style="fill:none;stroke:rgb(23,23,23);stroke-width:0.44px;stroke-linecap:round;stroke-linejoin:round;"/>
        <path d="M165.979,187.925L132.639,217.754C129.526,221.017 124.617,221.518 120.952,218.945C116.333,215.703 115.54,208.975 119.269,204.672L150.621,172.898C154.367,168.576 160.716,168.042 165.084,171.682C169.967,175.75 170.383,183.307 165.979,187.925Z" style="fill:rgb(233,167,154);fill-rule:nonzero;"/>
        <path d="M166.712,163.67C166.712,163.67 153.322,166.377 136.701,187.005L152.579,204.889L172.625,189.997L166.712,163.67Z" style="fill:white;fill-rule:nonzero;"/>
        <path d="M160.069,199.325L170.881,191.293" style="fill:none;stroke:rgb(23,23,23);stroke-width:0.68px;stroke-linecap:round;stroke-linejoin:round;"/>
        <path d="M209.467,117.009C208.482,126.934 199.92,138.162 189.179,138.14C178.439,138.118 171.844,129.579 168.971,120.028C164.533,105.281 177.827,97.919 192.598,100.58C199.254,101.778 210.537,106.216 209.467,117.009Z" style="fill-rule:nonzero;"/>
        <path d="M183.789,134.468L180.928,163.883L196.138,163.974L195.327,137.599L183.789,134.468Z" style="fill:rgb(233,167,154);fill-rule:nonzero;"/>
        <path d="M195.865,155.108L185.924,143.285L195.353,139.461L195.865,155.108Z" style="fill-rule:nonzero;"/>
        <path d="M186.179,106.091C189.474,105.198 192.969,105.002 196.309,105.712C200.832,106.674 206.627,109.532 207.337,117.808C208.519,131.6 206.818,142.714 200.002,145.821C194.769,148.206 190.964,147.273 184.953,143.754C182.716,142.445 180.588,136.904 179.986,134.263L177.418,126.881C177.418,126.881 170.433,110.359 186.179,106.091Z" style="fill:rgb(233,167,154);fill-rule:nonzero;"/>
        <path d="M180.159,130.887C180.159,130.887 186.848,109.946 177.08,109.373L171.688,119.796L174.521,128.531L180.159,130.887Z" style="fill-rule:nonzero;"/>
        <path d="M181.845,135.359C181.444,133.469 180.719,131.651 179.618,130.004C178.108,127.744 175.948,125.656 173.229,127.326C168.6,130.169 174.291,137.591 179.368,137.687C180.861,137.715 182.097,136.549 181.845,135.359Z" style="fill:rgb(233,167,154);fill-rule:nonzero;"/>
        <path d="M179.197,109.919C179.204,109.926 212.887,116.266 212.354,103.79C211.855,92.077 194.592,96.355 189.883,100.793L176.699,107.586L179.197,109.919Z" style="fill-rule:nonzero;"/>
        <path d="M199.878,129.82L201.124,132.715L199.52,133.972" style="fill:none;stroke:black;stroke-width:0.39px;stroke-linecap:round;stroke-linejoin:round;"/>
        <path d="M201.659,118.815C201.659,118.815 201.096,120.745 203.156,121.13C204.721,121.423 205.715,121.58 206.59,122.018C207.086,122.266 207.668,122.06 207.968,121.532C208.21,121.106 208.222,120.557 207.985,120.133C207.505,119.274 206.476,117.941 204.576,117.555C202.135,117.06 201.659,118.815 201.659,118.815Z" style="fill-rule:nonzero;"/>
        <path d="M194.951,118.661C194.951,118.661 195.623,120.598 192.725,120.958C190.524,121.231 187.889,122.136 186.644,122.563C185.937,122.806 185.137,122.592 184.75,122.061C184.437,121.632 184.453,121.083 184.808,120.662C185.527,119.808 188.281,117.728 190.955,117.365C194.39,116.898 194.951,118.661 194.951,118.661Z" style="fill-rule:nonzero;"/>
        <path d="M195.523,128.039C195.523,128.039 194.165,122.731 187.17,126.574C187.17,126.574 189.972,132.095 195.523,128.039Z" style="fill:white;fill-rule:nonzero;"/>
        <clipPath id="_clip2">
            <path d="M195.523,128.039C195.523,128.039 194.165,122.731 187.17,126.574C187.17,126.574 189.972,132.095 195.523,128.039Z" clip-rule="nonzero"/>
        </clipPath>
        <g clip-path="url(#_clip2)">
            <path d="M194.155,127.298C194.314,128.667 193.368,129.902 192.04,130.057C190.712,130.212 189.507,129.228 189.348,127.859C189.188,126.49 190.135,125.254 191.462,125.1C192.79,124.945 193.996,125.929 194.155,127.298Z" style="fill-rule:nonzero;"/>
        </g>
        <path d="M187.08,126.45C187.744,125.957 188.496,125.585 189.285,125.342C190.078,125.105 190.883,124.944 191.737,124.961C192.569,124.994 193.424,125.184 194.167,125.646C194.901,126.124 195.478,126.838 195.684,127.76C195.722,127.931 195.615,128.1 195.444,128.138C195.273,128.177 195.104,128.069 195.065,127.898C195.064,127.895 195.064,127.891 195.063,127.888L195.057,127.853C194.935,127.187 194.472,126.511 193.867,126.101C193.25,125.683 192.485,125.475 191.713,125.417C190.954,125.375 190.147,125.505 189.393,125.708C188.633,125.917 187.907,126.249 187.261,126.698C187.193,126.748 187.097,126.732 187.047,126.664C186.998,126.597 187.014,126.501 187.08,126.45Z" style="fill-rule:nonzero;"/>
        <path d="M201.284,128.007C201.284,128.007 203.375,122.754 207.196,126.397C207.196,126.397 205.686,131.559 201.284,128.007Z" style="fill:white;fill-rule:nonzero;"/>
        <clipPath id="_clip3">
            <path d="M201.284,128.007C201.284,128.007 203.375,122.754 207.196,126.397C207.196,126.397 205.686,131.559 201.284,128.007Z" clip-rule="nonzero"/>
        </clipPath>
        <g clip-path="url(#_clip3)">
            <path d="M202.641,126.979C202.43,128.234 203.064,129.387 204.058,129.554C205.052,129.721 206.028,128.839 206.24,127.584C206.451,126.329 205.816,125.176 204.822,125.009C203.829,124.841 202.852,125.724 202.641,126.979Z" style="fill-rule:nonzero;"/>
        </g>
        <path d="M207.088,126.47C206.797,126.058 206.415,125.713 205.965,125.519C205.522,125.324 204.992,125.281 204.548,125.391L204.522,125.396C203.87,125.508 203.258,125.805 202.775,126.258C202.292,126.699 201.9,127.282 201.663,127.872L201.655,127.892C201.6,128.028 201.444,128.095 201.307,128.04C201.17,127.984 201.104,127.829 201.159,127.692C201.16,127.689 201.162,127.685 201.163,127.683C201.474,126.987 201.91,126.399 202.473,125.914C203.03,125.428 203.739,125.114 204.47,125.019L204.445,125.024C205.022,124.905 205.588,124.988 206.098,125.228C206.603,125.469 207.01,125.872 207.304,126.325C207.343,126.385 207.325,126.466 207.265,126.505C207.207,126.542 207.128,126.526 207.088,126.47Z" style="fill-rule:nonzero;"/>
        <path d="M193.781,135.929C193.781,135.929 196.148,138.391 200.322,136.943" style="fill:none;stroke:black;stroke-width:0.39px;stroke-linecap:round;stroke-linejoin:round;"/>
        <rect x="474.47" y="432.431" width="105.085" height="13.337" style="fill:rgb(226,198,74);fill-rule:nonzero;"/>
        <rect x="485.339" y="432.431" width="19.985" height="13.337" style="fill:rgb(217,173,68);fill-rule:nonzero;"/>
        <rect x="552.391" y="432.431" width="14.655" height="13.337" style="fill:rgb(233,212,124);fill-rule:nonzero;"/>
        <rect x="474.47" y="405.755" width="105.085" height="13.338" style="fill:rgb(226,198,74);fill-rule:nonzero;"/>
        <rect x="485.339" y="405.755" width="19.985" height="13.338" style="fill:rgb(217,173,68);fill-rule:nonzero;"/>
        <rect x="552.391" y="405.755" width="14.655" height="13.338" style="fill:rgb(233,212,124);fill-rule:nonzero;"/>
        <rect x="474.47" y="365.742" width="105.085" height="13.338" style="fill:rgb(226,198,74);fill-rule:nonzero;"/>
        <rect x="485.339" y="365.742" width="19.985" height="13.338" style="fill:rgb(217,173,68);fill-rule:nonzero;"/>
        <rect x="552.391" y="365.742" width="14.655" height="13.338" style="fill:rgb(233,212,124);fill-rule:nonzero;"/>
        <rect x="486.979" y="445.768" width="105.084" height="13.337" style="fill:rgb(226,198,74);fill-rule:nonzero;"/>
        <rect x="497.848" y="445.768" width="19.985" height="13.337" style="fill:rgb(217,173,68);fill-rule:nonzero;"/>
        <rect x="564.899" y="445.768" width="14.656" height="13.337" style="fill:rgb(233,212,124);fill-rule:nonzero;"/>
        <rect x="486.979" y="392.417" width="105.084" height="13.338" style="fill:rgb(226,198,74);fill-rule:nonzero;"/>
        <rect x="497.848" y="392.417" width="19.985" height="13.338" style="fill:rgb(217,173,68);fill-rule:nonzero;"/>
        <rect x="564.899" y="392.417" width="14.656" height="13.338" style="fill:rgb(233,212,124);fill-rule:nonzero;"/>
        <rect x="486.979" y="379.08" width="105.084" height="13.337" style="fill:rgb(226,198,74);fill-rule:nonzero;"/>
        <rect x="497.848" y="379.08" width="19.985" height="13.337" style="fill:rgb(217,173,68);fill-rule:nonzero;"/>
        <rect x="564.899" y="379.08" width="14.656" height="13.337" style="fill:rgb(233,212,124);fill-rule:nonzero;"/>
        <rect x="486.979" y="419.093" width="105.084" height="13.338" style="fill:rgb(226,198,74);fill-rule:nonzero;"/>
        <rect x="497.848" y="419.093" width="19.985" height="13.338" style="fill:rgb(217,173,68);fill-rule:nonzero;"/>
        <rect x="564.899" y="419.093" width="14.656" height="13.338" style="fill:rgb(233,212,124);fill-rule:nonzero;"/>
        <path d="M579.555,445.768L486.979,445.768" style="fill:none;stroke:rgb(209,151,52);stroke-width:0.84px;"/>
        <path d="M579.555,432.431L486.979,432.431" style="fill:none;stroke:rgb(209,151,52);stroke-width:0.84px;"/>
        <path d="M579.555,419.093L486.979,419.093" style="fill:none;stroke:rgb(209,151,52);stroke-width:0.84px;"/>
        <path d="M579.555,405.755L486.979,405.755" style="fill:none;stroke:rgb(209,151,52);stroke-width:0.84px;"/>
        <path d="M592.063,392.417L486.979,392.417" style="fill:none;stroke:rgb(209,151,52);stroke-width:0.84px;"/>
        <path d="M592.063,379.08L486.979,379.08" style="fill:none;stroke:rgb(209,151,52);stroke-width:0.84px;"/>
        <path d="M670.82,425.926C664.39,449.659 639.937,463.686 616.203,457.256C592.47,450.825 578.442,426.373 584.873,402.64C591.304,378.905 615.756,364.879 639.489,371.309C663.224,377.739 677.25,402.191 670.82,425.926Z" style="fill:rgb(209,151,52);fill-rule:nonzero;"/>
        <path d="M664.533,424.223C658.102,447.956 633.65,461.982 609.917,455.553C586.184,449.122 572.156,424.67 578.586,400.936C585.017,377.202 609.47,363.176 633.203,369.605C656.936,376.036 670.964,400.488 664.533,424.223Z" style="fill:rgb(226,198,74);fill-rule:nonzero;"/>
        <path d="M656.026,421.918C650.869,440.953 631.257,452.203 612.222,447.046C593.185,441.889 581.935,422.276 587.093,403.241C592.25,384.205 611.862,372.955 630.898,378.112C649.934,383.27 661.185,402.882 656.026,421.918Z" style="fill:rgb(218,176,60);fill-rule:nonzero;"/>
        <path d="M589.139,405.862C594.296,386.826 613.908,375.576 632.944,380.733C640.071,382.664 646.107,386.623 650.599,391.817C645.976,385.341 639.179,380.355 630.898,378.112C611.862,372.955 592.25,384.205 587.093,403.241C584.172,414.02 586.518,424.983 592.555,433.402C590.063,428.973 588.511,424.013 588.082,418.847C587.646,414.608 587.958,410.221 589.139,405.862Z" style="fill:rgb(209,151,52);fill-rule:nonzero;"/>
        <path d="M612.998,435.879L614.338,430.933C608.819,429.164 606.542,426.503 608.365,419.772C608.83,418.058 609.353,416.632 609.853,415.541L616.9,417.45C616.699,417.941 616.464,418.559 616.24,419.384C615.449,422.306 615.192,424.008 618.05,424.782C620.843,425.538 621.435,424.608 622.451,420.862C622.95,419.021 623.122,418.387 622.347,417.223C620.785,414.686 615.939,411.942 613.944,409.493C612.135,407.367 612.212,405.071 613.812,399.167C615.653,392.373 618.304,390.638 624.866,392.074L625.932,388.144L629.931,389.228L628.866,393.158C634.766,395.029 636.294,397.692 634.659,403.725C634.195,405.438 633.74,406.61 633.355,407.528L626.372,405.637C626.59,405.082 626.762,404.447 627.019,403.494C627.742,400.828 627.723,399.391 625.057,398.669C622.77,398.049 621.93,398.64 621.069,401.814C620.175,405.116 620.279,405.485 622.18,407.021C624.236,408.738 626.333,410.056 628.106,411.559C630.585,413.729 632.318,414.881 630.546,421.42C628.052,430.627 625.477,433.337 618.355,431.952L616.998,436.963L612.998,435.879Z" style="fill:rgb(209,151,52);fill-rule:nonzero;"/>
        <path d="M459.668,448.496L449.321,454.067C448.225,454.658 447.55,456.027 447.877,457.334C448.135,458.366 449.007,459.161 451.296,459.228C456.385,459.377 485.777,455.892 485.777,455.892L486.273,459.122L497.468,458.916C497.468,458.916 495.69,443.975 492.525,441.993L459.668,448.496Z" style="fill-rule:nonzero;"/>
        <path d="M479.002,439.433L459.668,448.496C459.668,448.496 466.852,453.654 474.742,450.334C482.633,447.014 492.525,441.993 492.525,441.993L491.127,438.104L479.002,439.433Z" style="fill:rgb(198,123,91);fill-rule:nonzero;"/>
        <path d="M492.525,441.993L479.517,394.747L461.314,395.495L478.531,444.802L492.525,441.993Z" style="fill:rgb(198,123,91);fill-rule:nonzero;"/>
        <path d="M440.638,356.47L465.559,431.886L496.605,425.478L471.052,344.299L440.638,356.47Z" style="fill:rgb(49,73,215);fill-rule:nonzero;"/>
        <path d="M555.203,316.261C555.203,316.261 582.92,355.831 548.262,366.865L454.844,366.382C448.509,366.349 442.854,362.403 440.638,356.47C437.325,347.606 442.8,337.898 452.099,336.146L535.291,324.941L532.668,316.144L555.203,316.261Z" style="fill:rgb(49,73,215);fill-rule:nonzero;"/>
        <path d="M565.787,316.315C565.787,316.315 587.619,347.483 568.304,362.209C564.156,365.371 559.001,366.921 553.786,366.894L465.428,366.436C459.094,366.403 453.439,362.458 451.222,356.524C447.91,347.662 453.462,336.462 462.76,334.71L526.029,326.189L530.081,316.13L565.787,316.315Z" style="fill:rgb(76,96,250);fill-rule:nonzero;"/>
        <path d="M401.96,448.197L391.612,453.769C390.516,454.359 389.842,455.728 390.168,457.035C390.427,458.067 391.298,458.862 393.588,458.93C398.676,459.078 426.688,455.586 426.688,455.586L426.66,458.48L437.185,458.604C437.185,458.604 437.981,443.676 434.817,441.694L401.96,448.197Z" style="fill-rule:nonzero;"/>
        <path d="M421.293,439.134L401.96,448.197C401.96,448.197 409.144,453.355 417.034,450.035C424.925,446.715 434.817,441.694 434.817,441.694L433.418,437.806L421.293,439.134Z" style="fill:rgb(198,123,91);fill-rule:nonzero;"/>
        <path d="M434.817,441.694L457.688,394.634L436.911,395.368L420.038,443.571L434.817,441.694Z" style="fill:rgb(198,123,91);fill-rule:nonzero;"/>
        <path d="M451.565,344.466L418.506,429.3L448.097,439.994L481.313,358.804L451.565,344.466Z" style="fill:rgb(76,96,250);fill-rule:nonzero;"/>
        <path d="M516.163,259.093L514.294,316.206C514.209,321.427 518.586,325.616 523.799,325.303C528.39,325.026 532.027,321.32 532.218,316.725L535.501,259.932L516.163,259.093Z" style="fill:rgb(198,123,91);fill-rule:nonzero;"/>
        <path d="M512.328,280.492C512.328,280.492 509.596,250.037 525.455,249.005C543.427,247.836 537.74,285.067 537.854,282.419L512.328,280.492Z" style="fill:rgb(231,156,136);fill-rule:nonzero;"/>
        <path d="M480.289,321.686L521.361,309.649L523.799,325.303L483.059,329.213L480.289,321.686Z" style="fill:rgb(198,123,91);fill-rule:nonzero;"/>
        <path d="M545.185,243.78L565.652,247.07C565.652,247.07 569.547,246.501 572.751,257.707C575.484,267.264 565.417,315.889 565.417,315.889L529.71,315.889L520.257,285.155C519.403,282.718 518.862,280.179 518.688,277.602C518.32,272.148 518.992,266.546 521.179,261.633L523.195,249.375L535.445,244.809L545.185,243.78Z" style="fill:rgb(231,156,136);fill-rule:nonzero;"/>
        <path d="M552.612,244.974L545.185,243.78L534.622,245.087L529.993,246.841C529.993,246.841 525.635,253.49 532.851,254.321C541.617,255.332 548.459,251.986 552.612,244.974Z" style="fill:rgb(198,123,91);fill-rule:nonzero;"/>
        <path d="M556.495,257.912L562.058,314.782C562.565,319.979 567.391,323.645 572.533,322.74C577.063,321.943 580.256,317.848 579.923,313.26L575.803,256.547L556.495,257.912Z" style="fill:rgb(198,123,91);fill-rule:nonzero;"/>
        <path d="M556.042,279.524C556.042,279.524 550.21,248.076 563.634,247.062C581.593,245.704 581.809,281.181 581.621,278.536L556.042,279.524Z" style="fill:rgb(231,156,136);fill-rule:nonzero;"/>
        <path d="M528.895,324.095L568.332,307.465L572.533,322.74L532.502,331.258L528.895,324.095Z" style="fill:rgb(198,123,91);fill-rule:nonzero;"/>
        <path d="M528.895,324.095C528.895,324.095 521.836,314.553 508.634,327.558L513.064,331.258L532.502,331.258L534.966,324.673L528.895,324.095Z" style="fill:rgb(198,123,91);fill-rule:nonzero;"/>
        <path d="M522.778,330.891L559.093,330.891C561.339,330.891 563.159,332.711 563.159,334.956L522.778,334.956L522.778,330.891Z" style="fill-rule:nonzero;"/>
        <path d="M526.105,334.956L464.135,334.956L450.455,292.027C449.786,289.562 451.642,287.138 454.195,287.138L508.135,287.138C509.885,287.138 511.417,288.31 511.875,289.998L526.105,334.956Z" style="fill-rule:nonzero;"/>
        <path d="M522.778,334.956L458.525,334.956L444.845,292.027C444.177,289.562 446.032,287.138 448.585,287.138L504.808,287.138C506.557,287.138 508.09,288.31 508.548,289.998L522.778,334.956Z" style="fill:rgb(47,49,58);fill-rule:nonzero;"/>
        <path d="M485.688,310.836C485.688,313.323 483.671,315.341 481.184,315.341C478.696,315.341 476.679,313.323 476.679,310.836C476.679,308.349 478.696,306.331 481.184,306.331C483.671,306.331 485.688,308.349 485.688,310.836Z" style="fill:rgb(209,227,253);fill-rule:nonzero;"/>
        <path d="M544.5,224.502C545.09,231.083 550.902,235.939 557.482,235.349C564.063,234.76 568.92,228.947 568.33,222.367C567.74,215.787 561.928,210.93 555.348,211.52C548.767,212.109 543.91,217.922 544.5,224.502Z" style="fill-rule:nonzero;"/>
        <path d="M549.034,192.899C549.034,192.899 552.386,190.682 556.549,195.639C560.712,200.597 561.135,211.725 553.792,214.414L549.034,192.899Z" style="fill-rule:nonzero;"/>
        <path d="M549.034,192.899C549.034,192.899 543.952,180.927 528.59,184.444C513.227,187.96 503.88,203.061 517.814,211.097L549.034,192.899Z" style="fill-rule:nonzero;"/>
        <path d="M517.831,208.268C518.586,218.308 526.804,225.854 537.614,225.04C548.426,224.225 556.577,215.426 555.821,205.386C555.064,195.346 545.687,187.867 534.876,188.681C524.064,189.496 517.073,198.228 517.831,208.268Z" style="fill-rule:nonzero;"/>
        <path d="M540.139,220.035L548.208,245.358L539.265,252.739L534.186,249.198L531.349,224.468L540.139,220.035Z" style="fill:rgb(198,123,91);fill-rule:nonzero;"/>
        <path d="M533.452,242.853L540.798,228.587L531.595,226.332L533.452,242.853Z" style="fill-rule:nonzero;"/>
        <path d="M538.27,192.553C534.887,191.897 531.354,191.958 528.044,192.919C523.56,194.222 517.937,197.526 517.834,205.91C517.662,219.883 520.122,230.145 527.214,232.769C532.658,234.784 536.42,233.564 542.212,229.578C544.367,228.095 546.173,223.162 546.583,220.458L548.624,212.837C548.624,212.837 554.436,195.688 538.27,192.553Z" style="fill:rgb(198,123,91);fill-rule:nonzero;"/>
        <path d="M546.449,217.104C546.449,217.104 536.154,198.87 545.894,192.825C545.894,192.825 550.303,192.162 552.737,200.696C556.643,214.384 546.449,217.104 546.449,217.104Z" style="fill-rule:nonzero;"/>
        <path d="M544.722,220.896C544.985,218.964 545.581,217.081 546.567,215.34C547.921,212.954 549.942,210.692 552.803,212.172C557.673,214.693 552.492,222.586 547.388,223.057C545.886,223.196 544.555,222.113 544.722,220.896Z" style="fill:rgb(198,123,91);fill-rule:nonzero;"/>
        <path d="M545.235,223.54C545.339,224.702 546.366,225.56 547.528,225.456C548.69,225.352 549.548,224.325 549.443,223.163C549.34,222 548.313,221.143 547.15,221.247C545.988,221.351 545.131,222.378 545.235,223.54Z" style="fill:white;fill-rule:nonzero;"/>
        <path d="M548.988,195.9C548.988,195.9 528.184,213.307 515.388,203.428C515.388,203.428 510.591,192.027 529.988,188.374C549.387,184.72 548.988,195.9 548.988,195.9Z" style="fill-rule:nonzero;"/>
        <path d="M526.546,220.035L525.324,222.875L526.897,224.107" style="fill:none;stroke:black;stroke-width:0.38px;stroke-linecap:round;stroke-linejoin:round;"/>
        <path d="M523.955,209.842C523.955,209.842 524.434,211.484 522.681,211.812C521.349,212.06 520.503,212.194 519.758,212.566C519.336,212.778 518.841,212.602 518.586,212.153C518.38,211.791 518.37,211.324 518.572,210.963C518.979,210.231 519.854,209.098 521.473,208.77C523.55,208.347 523.955,209.842 523.955,209.842Z" style="fill-rule:nonzero;"/>
        <path d="M531.852,209.557C531.852,209.557 531.279,211.205 533.745,211.511C535.618,211.744 537.86,212.514 538.92,212.877C539.521,213.084 540.202,212.902 540.532,212.45C540.798,212.085 540.784,211.618 540.482,211.26C539.87,210.533 537.526,208.763 535.251,208.454C532.329,208.057 531.852,209.557 531.852,209.557Z" style="fill-rule:nonzero;"/>
        <path d="M530.818,217.739C530.818,217.739 532.15,212.534 539.011,216.303C539.011,216.303 536.264,221.718 530.818,217.739Z" style="fill:white;fill-rule:nonzero;"/>
        <clipPath id="_clip4">
            <path d="M530.818,217.739C530.818,217.739 532.15,212.534 539.011,216.303C539.011,216.303 536.264,221.718 530.818,217.739Z" clip-rule="nonzero"/>
        </clipPath>
        <g clip-path="url(#_clip4)">
            <path d="M532.16,217.013C532.004,218.356 532.933,219.568 534.234,219.72C535.537,219.872 536.719,218.906 536.876,217.563C537.032,216.22 536.104,215.009 534.802,214.857C533.499,214.705 532.316,215.67 532.16,217.013Z" style="fill-rule:nonzero;"/>
        </g>
        <path d="M538.922,216.424C538.288,215.984 537.577,215.658 536.831,215.454C536.092,215.254 535.3,215.126 534.556,215.167C533.799,215.225 533.049,215.429 532.442,215.838C531.849,216.241 531.396,216.904 531.275,217.557L531.27,217.59C531.238,217.759 531.076,217.871 530.907,217.84C530.738,217.809 530.627,217.647 530.658,217.478C530.658,217.475 530.659,217.47 530.66,217.466C530.862,216.563 531.428,215.861 532.148,215.393C532.877,214.939 533.716,214.753 534.532,214.721C535.37,214.704 536.159,214.862 536.938,215.095C537.711,215.333 538.448,215.697 539.101,216.182C539.167,216.231 539.181,216.326 539.132,216.393C539.083,216.458 538.988,216.471 538.922,216.424Z" style="fill-rule:nonzero;"/>
        <path d="M525.167,217.709C525.167,217.709 523.116,212.556 519.367,216.13C519.367,216.13 520.849,221.193 525.167,217.709Z" style="fill:white;fill-rule:nonzero;"/>
        <clipPath id="_clip5">
            <path d="M525.167,217.709C525.167,217.709 523.116,212.556 519.367,216.13C519.367,216.13 520.849,221.193 525.167,217.709Z" clip-rule="nonzero"/>
        </clipPath>
        <g clip-path="url(#_clip5)">
            <path d="M523.836,216.7C524.044,217.931 523.421,219.062 522.445,219.226C521.472,219.39 520.513,218.525 520.307,217.293C520.099,216.063 520.722,214.931 521.695,214.768C522.672,214.604 523.63,215.469 523.836,216.7Z" style="fill-rule:nonzero;"/>
        </g>
        <path d="M519.263,216.059C519.551,215.614 519.95,215.219 520.445,214.982C520.945,214.747 521.5,214.666 522.065,214.782L522.042,214.777C522.758,214.871 523.455,215.179 524,215.655C524.554,216.131 524.981,216.708 525.286,217.39C525.346,217.522 525.286,217.678 525.153,217.737C525.021,217.796 524.866,217.737 524.807,217.604C524.806,217.602 524.805,217.599 524.804,217.596L524.795,217.576C524.563,216.998 524.177,216.426 523.703,215.993C523.229,215.548 522.63,215.257 521.991,215.147L521.966,215.142C521.53,215.035 521.01,215.077 520.575,215.268C520.133,215.459 519.758,215.796 519.474,216.201C519.434,216.258 519.354,216.272 519.297,216.232C519.24,216.193 519.227,216.116 519.263,216.059Z" style="fill-rule:nonzero;"/>
        <path d="M532.842,225.351C532.842,225.351 531.307,227.7 527.213,226.28" style="fill:none;stroke:black;stroke-width:0.38px;stroke-linecap:round;stroke-linejoin:round;"/>
        <path d="M75.038,459.097L683.277,459.097" style="fill:none;stroke:rgb(160,192,252);stroke-width:2px;stroke-linecap:round;stroke-linejoin:round;"/>
    </g>
    <defs>
        <linearGradient id="_Linear1" x1="0" y1="0" x2="1" y2="0" gradientUnits="userSpaceOnUse" gradientTransform="matrix(358.79,0,0,358.79,200.327,193.42)"><stop offset="0" style="stop-color:rgb(140,226,253);stop-opacity:1"/><stop offset="1" style="stop-color:rgb(75,96,249);stop-opacity:1"/></linearGradient>
    </defs>
</svg>
